# xmcd
#
# Track frame offsets: 
#        150
#        6535
#        19662
#        35141
#        54393
#        71827
#        87983
#        103689
#        115642
#        133033
#        153123
#        167725
#        186140
#        200051
#
# Disc length: 2937 seconds
#
# Revision: 0
# Processed by: cddbd v1.5.2PL0 Copyright (c) Steve Scherf et al.
# Submitted via: ExactAudioCopy v0.95b4
#
DISCID=bf0b770e
DTITLE=Sere and SP - Perusasioiden Äärellä
DYEAR=2005
DGENRE=Hip-Hop
TTITLE0=Intro
TTITLE1=Bisneksen Tiet
TTITLE2=Se Menee Niin
TTITLE3=Taivaan Täydeltä
TTITLE4=Punssia
TTITLE5=Vapaa Sana
TTITLE6=Olet Ystäväin
TTITLE7=Omalla Tiellä
TTITLE8=Heitä Ne Ilmaan
TTITLE9=Joka Hetki
TTITLE10=Muistaksä Sen Päivän?
TTITLE11=En Haluu Kuolla Yksin
TTITLE12=Kiitän
TTITLE13=Tarina Tähän Mennessä
EXTD=
EXTT0=Intro
EXTT1=
EXTT2=
EXTT3=
EXTT4=
EXTT5=
EXTT6=
EXTT7=
EXTT8=
EXTT9=
EXTT10=
EXTT11=
EXTT12=
EXTT13=
PLAYORDER=
